# xmcd
#
# Track frame offsets:
#	150
#	17976
#	32227
#	49396
#	65273
#	80834
#	96931
#	110581
#	121575
#	135050
#	149658
#	165707
#	170924
#	173913
#	178593
#	182930
#	187779
#	192119
#	213721
#	229252
#	239140
#	251057
#	261420
#	269864
#	273092
#
# Disc length: 3703 seconds
#
# Revision: 0
# Processed by: cddbd v1.5.2PL0 Copyright (c) Steve Scherf et al.
# Submitted via: audiograbber 1.83.01
#
DISCID=850e7519
DTITLE=Τα Ωραιότερα Ελληνικά - Ελαφρά Τραγούδια - CD 1
DYEAR=2010
DGENRE=Oldies
TTITLE0=Γιώργος Μουζάκης - ¨Ενας φίλος ήρθε απόψε απ' τα παλιά
TTITLE1=Μιχάλης Σουγιούλ - Πάμε σαν άλλοτε
TTITLE2=Γιώργος Μουζάκης - Σου σφυρίζω
TTITLE3=Νινή Ζαχά - Ο ταχυδρόμος
TTITLE4=Γιώργος Μουζάκης - Καλώς όρισες, έρωτα
TTITLE5=Γιώργος Μουζάκης - Με σένα αρχίζει η ζωή
TTITLE6=Γιώργος Μουζάκης - Θέλω να χορεύω
TTITLE7=Σωτηρία Ιατρίδου - Ακόμα ένα ποτηράκι
TTITLE8=Γιώργος Μουζάκης - Γλυκια ζωή
TTITLE9=Μίμης Κατριβάνος - Αν ξαναγύριζες
TTITLE10=Γιώργος Μουζάκης - Το κορίτσι που αγαπώ
TTITLE11=Αντώνης Βόπης - Ρεζεντά
TTITLE12=Σωτηρία Ιατρίδου - Λουλούδι, ρόδο μυρωμένο
TTITLE13=Θεόφραστος Σακελλαρίδης - Σφίξε με
TTITLE14=Μιχάλης Σουγιούλ - Το τελευταίο τραμ
TTITLE15=Ζακ Ιακωβίδης - Νυχτερίδα
TTITLE16=Μιχάλης Σουγιούλ - Τραμπαρίφας
TTITLE17=Γιώργος Μουζάκης - Το μονοπάτι
TTITLE18=Γιώργος Μουζάκης - Θέλω ρούμπα να χορεύω
TTITLE19=Γιάννης Σπανός - Ήρθες αγάπη μου
TTITLE20=Κώστας Γιαννίδης - Θα ξαναέρθεις
TTITLE21=Χρήστος Χαιρόπουλος - Μη μ' αγαπάς, αλλά μη μου το λες
TTITLE22=Κωνσταντίνος Βλαχόπουλος - Μικρό μου κοριτσάκι
TTITLE23=Παραδοσιακό - Ένα κορίτσι
TTITLE24=Παραδοσιακό - Κύμινο κύμινο
EXTD=
EXTT0=
EXTT1=
EXTT2=
EXTT3=
EXTT4=
EXTT5=
EXTT6=
EXTT7=
EXTT8=
EXTT9=
EXTT10=
EXTT11=
EXTT12=
EXTT13=
EXTT14=
EXTT15=
EXTT16=
EXTT17=
EXTT18=
EXTT19=
EXTT20=
EXTT21=
EXTT22=
EXTT23=
EXTT24=
PLAYORDER=
